<?xml version="1.0" encoding="UTF-8" standalone="no"?>
<!-- Created with Inkscape (http://www.inkscape.org/) -->

<svg
   width="100px"
   height="100px"
   viewBox="0 0 210.00011 210.00012"
   version="1.1"
   id="svg1"
   inkscape:version="1.3 (0e150ed, 2023-07-21)"
   sodipodi:docname="ra_logo.svg"
   xmlns:inkscape="http://www.inkscape.org/namespaces/inkscape"
   xmlns:sodipodi="http://sodipodi.sourceforge.net/DTD/sodipodi-0.dtd"
   xmlns="http://www.w3.org/2000/svg"
   xmlns:svg="http://www.w3.org/2000/svg">
  <sodipodi:namedview
     id="namedview1"
     pagecolor="#ffffff"
     bordercolor="#666666"
     borderopacity="1.0"
     inkscape:showpageshadow="2"
     inkscape:pageopacity="0.0"
     inkscape:pagecheckerboard="0"
     inkscape:deskcolor="#d1d1d1"
     inkscape:document-units="mm"
     showgrid="false"
     inkscape:zoom="0.74142547"
     inkscape:cx="205.01049"
     inkscape:cy="376.97653"
     inkscape:window-width="2560"
     inkscape:window-height="1377"
     inkscape:window-x="0"
     inkscape:window-y="26"
     inkscape:window-maximized="1"
     inkscape:current-layer="g8">
    <inkscape:grid
       id="grid1"
       units="px"
       originx="6.8956513e-07"
       originy="3.4866595e-05"
       spacingx="0.26458333"
       spacingy="0.26458334"
       empcolor="#0099e5"
       empopacity="0.30196078"
       color="#0099e5"
       opacity="0.14901961"
       empspacing="5"
       dotted="false"
       gridanglex="30"
       gridanglez="30"
       visible="false" />
  </sodipodi:namedview>
  <defs
     id="defs1" />
  <g
     inkscape:label="Layer 1"
     inkscape:groupmode="layer"
     id="layer1">
    <g
       id="g3"
       transform="matrix(2.9873886,0,0,2.9872304,-11.393968,-277.50032)"
       style="fill:#51a2ff">
      <g
         id="g8"
         transform="matrix(1.7956138,0,0,1.7956138,-6.4757995,-87.419752)"
         style="fill:#51a2ff">
        <g
           id="path2"
           style="fill:#51a2ff">
          <path
             style="color:#000000;fill:#51a2ff;stroke-linecap:square;-inkscape-stroke:none"
             d="M 14.464984,128.02992 24.526335,109.69739"
             id="path11" />
          <path
             id="path12"
             style="color:#000000;fill:#51a2ff;stroke-linecap:square;-inkscape-stroke:none"
             d="m 25.304721,100.41985 c -2.343967,0 -4.592285,0.41505 -6.676747,1.17343 l 1.240612,2.0539 c 0.0031,-0.001 0.0064,-0.002 0.0095,-0.003 l 0.610191,1.00984 2.669948,4.4183 -10.007849,18.23599 -0.722711,1.31447 2.630932,1.44329 0.720688,-1.31438 9.172713,-16.71101 5.453379,9.02445 -8.781397,-0.0145 a 1.5,1.5 0 0 0 -0.01098,-9e-5 l -0.07784,-1e-4 a 1.5,1.5 0 0 0 -0.130631,0.0169 1.5,1.5 0 0 0 -0.211746,0.0273 1.5,1.5 0 0 0 -0.234771,0.0836 1.5,1.5 0 0 0 -0.09672,0.0344 1.5,1.5 0 0 0 -0.01695,0.0123 1.5,1.5 0 0 0 -0.78138,1.08566 1.5,1.5 0 0 0 -0.0013,0.01 1.5,1.5 0 0 0 -0.03035,0.22602 1.5,1.5 0 0 0 0.03054,0.237 1.5,1.5 0 0 0 9.7e-5,6.7e-4 1.5,1.5 0 0 0 0.201341,0.55618 l 7.023365,13.75508 c -0.651305,0.0748 -1.31022,0.12485 -1.981918,0.12485 -9.526924,0 -17.2246559,-7.69767 -17.2246544,-17.2246 -1e-6,-6.5498 3.6385454,-12.23577 9.0083644,-15.1499 l -1.209882,-2.00168 c -6.0448115,3.335 -10.1480183,9.77079 -10.1480171,17.15158 -1.7e-6,10.79678 8.7774141,19.57436 19.5741891,19.57436 2.13697,0 4.192606,-0.34871 6.118964,-0.98403 l -1.079443,-2.11401 c -0.0023,7.1e-4 -0.0047,0.001 -0.007,0.002 l -6.341306,-12.41941 8.22419,0.0136 2.713491,4.49026 0.775408,1.28509 2.566386,-1.55272 -0.775407,-1.28317 -14.443343,-23.90431 -0.102983,-0.17042 c 0.768705,-0.10557 1.552804,-0.16349 2.351076,-0.16349 9.526924,0 17.22456,7.69951 17.224559,17.22643 1e-6,6.70417 -3.814531,12.49814 -9.393322,15.34557 l 1.063836,2.08347 c 6.333554,-3.24433 10.679214,-9.83469 10.679213,-17.42904 2e-6,-10.79677 -8.77751,-19.57619 -19.574286,-19.57619 z" />
        </g>
        <g
           id="path2-6">
          <path
             style="color:#000000;stroke-linecap:square;-inkscape-stroke:none"
             d="M 36.216659,127.78327 21.772479,103.87903"
             id="path9" />
        </g>
        <g
           id="path2-6-6">
          <path
             style="color:#000000;stroke-linecap:round;-inkscape-stroke:none"
             d="m 29.117114,137.3824 -7.57412,-14.83377"
             id="path13" />
        </g>
        <g
           id="path2-6-6-9">
          <path
             style="color:#000000;stroke-linecap:round;-inkscape-stroke:none"
             d="m 32.236155,122.56932 -10.704494,-0.0195"
             id="path15" />
        </g>
      </g>
      <g
         id="path2-6-6-2"
         style="fill:#51a2ff" />
    </g>
  </g>
</svg>
